<mxfile host="Electron" modified="2023-10-06T08:49:51.989Z" agent="Mozilla/5.0 (Windows NT 10.0; Win64; x64) AppleWebKit/537.36 (KHTML, like Gecko) draw.io/21.4.0 Chrome/112.0.5615.204 Electron/24.5.1 Safari/537.36" etag="oGW90HlehfIhGXEjO-Vo" version="21.4.0" type="device">
  <diagram name="Page-1" id="1hm8HmTSw6B5gK0yuC_L">
    <mxGraphModel dx="1036" dy="606" grid="1" gridSize="10" guides="1" tooltips="1" connect="1" arrows="1" fold="1" page="1" pageScale="1" pageWidth="850" pageHeight="1100" math="0" shadow="0">
      <root>
        <mxCell id="0" />
        <mxCell id="1" parent="0" />
        <mxCell id="__wWAyPd4UwDDS3I6Whu-1" value="Bắt đầu" style="ellipse;whiteSpace=wrap;html=1;fontSize=13;" parent="1" vertex="1">
          <mxGeometry x="365" y="60" width="120" height="50" as="geometry" />
        </mxCell>
        <mxCell id="U7LoR9dBJlGIUiCqkhnB-1" value="ID, Tên, SL, Giá&lt;br&gt;UID, Tên KH" style="shape=parallelogram;perimeter=parallelogramPerimeter;whiteSpace=wrap;html=1;fixedSize=1;" parent="1" vertex="1">
          <mxGeometry x="360" y="150" width="120" height="60" as="geometry" />
        </mxCell>
        <mxCell id="U7LoR9dBJlGIUiCqkhnB-24" value="" style="endArrow=classic;html=1;rounded=0;exitX=0.5;exitY=1;exitDx=0;exitDy=0;entryX=0.535;entryY=-0.012;entryDx=0;entryDy=0;entryPerimeter=0;" parent="1" source="__wWAyPd4UwDDS3I6Whu-1" target="U7LoR9dBJlGIUiCqkhnB-1" edge="1">
          <mxGeometry width="50" height="50" relative="1" as="geometry">
            <mxPoint x="570" y="80" as="sourcePoint" />
            <mxPoint x="620" y="30" as="targetPoint" />
          </mxGeometry>
        </mxCell>
        <mxCell id="U7LoR9dBJlGIUiCqkhnB-25" value="" style="endArrow=classic;html=1;rounded=0;entryX=0.5;entryY=0;entryDx=0;entryDy=0;" parent="1" edge="1">
          <mxGeometry width="50" height="50" relative="1" as="geometry">
            <mxPoint x="425" y="210" as="sourcePoint" />
            <mxPoint x="425" y="250" as="targetPoint" />
          </mxGeometry>
        </mxCell>
        <mxCell id="sXyltpoY5i6gu0YdMG4e-1" value="Kiểm tra thông&lt;br&gt;tin tài khoản&amp;nbsp;" style="rhombus;whiteSpace=wrap;html=1;" vertex="1" parent="1">
          <mxGeometry x="360" y="250" width="130" height="80" as="geometry" />
        </mxCell>
        <mxCell id="sXyltpoY5i6gu0YdMG4e-2" value="Thông báo yêu cầu đăng nhập" style="rounded=0;whiteSpace=wrap;html=1;" vertex="1" parent="1">
          <mxGeometry x="210" y="360" width="110" height="50" as="geometry" />
        </mxCell>
        <mxCell id="sXyltpoY5i6gu0YdMG4e-3" value="Kiểm tra số lượng&lt;br&gt;sản phẩm" style="rhombus;whiteSpace=wrap;html=1;" vertex="1" parent="1">
          <mxGeometry x="520" y="345" width="150" height="65" as="geometry" />
        </mxCell>
        <mxCell id="sXyltpoY5i6gu0YdMG4e-4" value="" style="endArrow=classic;html=1;rounded=0;exitX=0;exitY=0.5;exitDx=0;exitDy=0;entryX=0.5;entryY=0;entryDx=0;entryDy=0;" edge="1" parent="1" source="sXyltpoY5i6gu0YdMG4e-1" target="sXyltpoY5i6gu0YdMG4e-2">
          <mxGeometry width="50" height="50" relative="1" as="geometry">
            <mxPoint x="250" y="310" as="sourcePoint" />
            <mxPoint x="300" y="260" as="targetPoint" />
            <Array as="points">
              <mxPoint x="265" y="290" />
            </Array>
          </mxGeometry>
        </mxCell>
        <mxCell id="sXyltpoY5i6gu0YdMG4e-5" value="Sai" style="text;html=1;strokeColor=none;fillColor=none;align=center;verticalAlign=middle;whiteSpace=wrap;rounded=0;" vertex="1" parent="1">
          <mxGeometry x="300" y="250" width="60" height="30" as="geometry" />
        </mxCell>
        <mxCell id="sXyltpoY5i6gu0YdMG4e-6" value="Đúng" style="text;html=1;strokeColor=none;fillColor=none;align=center;verticalAlign=middle;whiteSpace=wrap;rounded=0;" vertex="1" parent="1">
          <mxGeometry x="510" y="250" width="60" height="30" as="geometry" />
        </mxCell>
        <mxCell id="sXyltpoY5i6gu0YdMG4e-7" value="" style="endArrow=classic;html=1;rounded=0;exitX=1;exitY=0.5;exitDx=0;exitDy=0;entryX=0.5;entryY=0;entryDx=0;entryDy=0;" edge="1" parent="1" source="sXyltpoY5i6gu0YdMG4e-1" target="sXyltpoY5i6gu0YdMG4e-3">
          <mxGeometry width="50" height="50" relative="1" as="geometry">
            <mxPoint x="570" y="320" as="sourcePoint" />
            <mxPoint x="620" y="270" as="targetPoint" />
            <Array as="points">
              <mxPoint x="595" y="290" />
            </Array>
          </mxGeometry>
        </mxCell>
        <mxCell id="sXyltpoY5i6gu0YdMG4e-8" value="Thông báo hết hàng" style="rounded=0;whiteSpace=wrap;html=1;" vertex="1" parent="1">
          <mxGeometry x="410" y="440" width="100" height="50" as="geometry" />
        </mxCell>
        <mxCell id="sXyltpoY5i6gu0YdMG4e-9" value="" style="endArrow=classic;html=1;rounded=0;exitX=0;exitY=0.5;exitDx=0;exitDy=0;entryX=0.5;entryY=0;entryDx=0;entryDy=0;" edge="1" parent="1" source="sXyltpoY5i6gu0YdMG4e-3" target="sXyltpoY5i6gu0YdMG4e-8">
          <mxGeometry width="50" height="50" relative="1" as="geometry">
            <mxPoint x="400" y="410" as="sourcePoint" />
            <mxPoint x="450" y="360" as="targetPoint" />
            <Array as="points">
              <mxPoint x="460" y="378" />
            </Array>
          </mxGeometry>
        </mxCell>
        <mxCell id="sXyltpoY5i6gu0YdMG4e-10" value="Tính tổng tiền&amp;nbsp;&lt;br&gt;các sản phẩm" style="rounded=0;whiteSpace=wrap;html=1;" vertex="1" parent="1">
          <mxGeometry x="650" y="440" width="100" height="50" as="geometry" />
        </mxCell>
        <mxCell id="sXyltpoY5i6gu0YdMG4e-11" value="" style="endArrow=classic;html=1;rounded=0;exitX=1;exitY=0.5;exitDx=0;exitDy=0;entryX=0.5;entryY=0;entryDx=0;entryDy=0;" edge="1" parent="1" source="sXyltpoY5i6gu0YdMG4e-3" target="sXyltpoY5i6gu0YdMG4e-10">
          <mxGeometry width="50" height="50" relative="1" as="geometry">
            <mxPoint x="630" y="270" as="sourcePoint" />
            <mxPoint x="680" y="220" as="targetPoint" />
            <Array as="points">
              <mxPoint x="700" y="378" />
            </Array>
          </mxGeometry>
        </mxCell>
        <mxCell id="sXyltpoY5i6gu0YdMG4e-13" value="Lập hóa đơn" style="rounded=0;whiteSpace=wrap;html=1;" vertex="1" parent="1">
          <mxGeometry x="650" y="525" width="100" height="50" as="geometry" />
        </mxCell>
        <mxCell id="sXyltpoY5i6gu0YdMG4e-14" value="" style="endArrow=classic;html=1;rounded=0;exitX=0.5;exitY=1;exitDx=0;exitDy=0;entryX=0.5;entryY=0;entryDx=0;entryDy=0;" edge="1" parent="1" source="sXyltpoY5i6gu0YdMG4e-10" target="sXyltpoY5i6gu0YdMG4e-13">
          <mxGeometry width="50" height="50" relative="1" as="geometry">
            <mxPoint x="790" y="430" as="sourcePoint" />
            <mxPoint x="700" y="520" as="targetPoint" />
          </mxGeometry>
        </mxCell>
        <mxCell id="sXyltpoY5i6gu0YdMG4e-15" value="" style="ellipse;whiteSpace=wrap;html=1;" vertex="1" parent="1">
          <mxGeometry x="400" y="530" width="40" height="40" as="geometry" />
        </mxCell>
        <mxCell id="sXyltpoY5i6gu0YdMG4e-16" value="" style="endArrow=classic;html=1;rounded=0;exitX=0.5;exitY=1;exitDx=0;exitDy=0;entryX=0;entryY=0.5;entryDx=0;entryDy=0;" edge="1" parent="1" source="sXyltpoY5i6gu0YdMG4e-2" target="sXyltpoY5i6gu0YdMG4e-15">
          <mxGeometry width="50" height="50" relative="1" as="geometry">
            <mxPoint x="270" y="580" as="sourcePoint" />
            <mxPoint x="320" y="530" as="targetPoint" />
            <Array as="points">
              <mxPoint x="265" y="550" />
            </Array>
          </mxGeometry>
        </mxCell>
        <mxCell id="sXyltpoY5i6gu0YdMG4e-17" value="" style="endArrow=classic;html=1;rounded=0;exitX=0.141;exitY=0.996;exitDx=0;exitDy=0;exitPerimeter=0;entryX=0.619;entryY=0.014;entryDx=0;entryDy=0;entryPerimeter=0;" edge="1" parent="1" source="sXyltpoY5i6gu0YdMG4e-8" target="sXyltpoY5i6gu0YdMG4e-15">
          <mxGeometry width="50" height="50" relative="1" as="geometry">
            <mxPoint x="520" y="560" as="sourcePoint" />
            <mxPoint x="570" y="510" as="targetPoint" />
          </mxGeometry>
        </mxCell>
        <mxCell id="sXyltpoY5i6gu0YdMG4e-18" value="" style="endArrow=classic;html=1;rounded=0;entryX=1;entryY=0.5;entryDx=0;entryDy=0;exitX=0;exitY=0.5;exitDx=0;exitDy=0;" edge="1" parent="1" source="sXyltpoY5i6gu0YdMG4e-13" target="sXyltpoY5i6gu0YdMG4e-15">
          <mxGeometry width="50" height="50" relative="1" as="geometry">
            <mxPoint x="530" y="580" as="sourcePoint" />
            <mxPoint x="580" y="530" as="targetPoint" />
          </mxGeometry>
        </mxCell>
        <mxCell id="sXyltpoY5i6gu0YdMG4e-19" value="Kết thúc" style="ellipse;whiteSpace=wrap;html=1;fontSize=13;" vertex="1" parent="1">
          <mxGeometry x="365" y="600" width="120" height="50" as="geometry" />
        </mxCell>
        <mxCell id="sXyltpoY5i6gu0YdMG4e-20" value="" style="endArrow=classic;html=1;rounded=0;exitX=0.618;exitY=1.006;exitDx=0;exitDy=0;exitPerimeter=0;entryX=0.5;entryY=0;entryDx=0;entryDy=0;" edge="1" parent="1" source="sXyltpoY5i6gu0YdMG4e-15" target="sXyltpoY5i6gu0YdMG4e-19">
          <mxGeometry width="50" height="50" relative="1" as="geometry">
            <mxPoint x="450" y="600" as="sourcePoint" />
            <mxPoint x="500" y="550" as="targetPoint" />
          </mxGeometry>
        </mxCell>
      </root>
    </mxGraphModel>
  </diagram>
</mxfile>
